<svg xmlns="http://www.w3.org/2000/svg" viewBox="0 0 1920 1000" width="1920" height="1000">
<rect x="0" y="0" width="1920" height="1000" fill="#0f172a"/>
<g stroke="#14b8a6" stroke-width="1" opacity="0.06">
<line x1="0" y1="0" x2="0" y2="1000"/>
<line x1="40" y1="0" x2="40" y2="1000"/>
<line x1="80" y1="0" x2="80" y2="1000"/>
<line x1="120" y1="0" x2="120" y2="1000"/>
<line x1="160" y1="0" x2="160" y2="1000"/>
<line x1="200" y1="0" x2="200" y2="1000"/>
<line x1="240" y1="0" x2="240" y2="1000"/>
<line x1="280" y1="0" x2="280" y2="1000"/>
<line x1="320" y1="0" x2="320" y2="1000"/>
<line x1="360" y1="0" x2="360" y2="1000"/>
<line x1="400" y1="0" x2="400" y2="1000"/>
<line x1="440" y1="0" x2="440" y2="1000"/>
<line x1="480" y1="0" x2="480" y2="1000"/>
<line x1="520" y1="0" x2="520" y2="1000"/>
<line x1="560" y1="0" x2="560" y2="1000"/>
<line x1="600" y1="0" x2="600" y2="1000"/>
<line x1="640" y1="0" x2="640" y2="1000"/>
<line x1="680" y1="0" x2="680" y2="1000"/>
<line x1="720" y1="0" x2="720" y2="1000"/>
<line x1="760" y1="0" x2="760" y2="1000"/>
<line x1="800" y1="0" x2="800" y2="1000"/>
<line x1="840" y1="0" x2="840" y2="1000"/>
<line x1="880" y1="0" x2="880" y2="1000"/>
<line x1="920" y1="0" x2="920" y2="1000"/>
<line x1="960" y1="0" x2="960" y2="1000"/>
<line x1="1000" y1="0" x2="1000" y2="1000"/>
<line x1="1040" y1="0" x2="1040" y2="1000"/>
<line x1="1080" y1="0" x2="1080" y2="1000"/>
<line x1="1120" y1="0" x2="1120" y2="1000"/>
<line x1="1160" y1="0" x2="1160" y2="1000"/>
<line x1="1200" y1="0" x2="1200" y2="1000"/>
<line x1="1240" y1="0" x2="1240" y2="1000"/>
<line x1="1280" y1="0" x2="1280" y2="1000"/>
<line x1="1320" y1="0" x2="1320" y2="1000"/>
<line x1="1360" y1="0" x2="1360" y2="1000"/>
<line x1="1400" y1="0" x2="1400" y2="1000"/>
<line x1="1440" y1="0" x2="1440" y2="1000"/>
<line x1="1480" y1="0" x2="1480" y2="1000"/>
<line x1="1520" y1="0" x2="1520" y2="1000"/>
<line x1="1560" y1="0" x2="1560" y2="1000"/>
<line x1="1600" y1="0" x2="1600" y2="1000"/>
<line x1="1640" y1="0" x2="1640" y2="1000"/>
<line x1="1680" y1="0" x2="1680" y2="1000"/>
<line x1="1720" y1="0" x2="1720" y2="1000"/>
<line x1="1760" y1="0" x2="1760" y2="1000"/>
<line x1="1800" y1="0" x2="1800" y2="1000"/>
<line x1="1840" y1="0" x2="1840" y2="1000"/>
<line x1="1880" y1="0" x2="1880" y2="1000"/>
<line x1="1920" y1="0" x2="1920" y2="1000"/>
<line x1="0" y1="0" x2="1920" y2="0"/>
<line x1="0" y1="40" x2="1920" y2="40"/>
<line x1="0" y1="80" x2="1920" y2="80"/>
<line x1="0" y1="120" x2="1920" y2="120"/>
<line x1="0" y1="160" x2="1920" y2="160"/>
<line x1="0" y1="200" x2="1920" y2="200"/>
<line x1="0" y1="240" x2="1920" y2="240"/>
<line x1="0" y1="280" x2="1920" y2="280"/>
<line x1="0" y1="320" x2="1920" y2="320"/>
<line x1="0" y1="360" x2="1920" y2="360"/>
<line x1="0" y1="400" x2="1920" y2="400"/>
<line x1="0" y1="440" x2="1920" y2="440"/>
<line x1="0" y1="480" x2="1920" y2="480"/>
<line x1="0" y1="520" x2="1920" y2="520"/>
<line x1="0" y1="560" x2="1920" y2="560"/>
<line x1="0" y1="600" x2="1920" y2="600"/>
<line x1="0" y1="640" x2="1920" y2="640"/>
<line x1="0" y1="680" x2="1920" y2="680"/>
<line x1="0" y1="720" x2="1920" y2="720"/>
<line x1="0" y1="760" x2="1920" y2="760"/>
<line x1="0" y1="800" x2="1920" y2="800"/>
<line x1="0" y1="840" x2="1920" y2="840"/>
<line x1="0" y1="880" x2="1920" y2="880"/>
<line x1="0" y1="920" x2="1920" y2="920"/>
<line x1="0" y1="960" x2="1920" y2="960"/>
<line x1="0" y1="1000" x2="1920" y2="1000"/>
</g>
<g stroke="#5eead4" stroke-width="1" opacity="0.12">
<line x1="0" y1="0" x2="0" y2="1000"/>
<line x1="200" y1="0" x2="200" y2="1000"/>
<line x1="400" y1="0" x2="400" y2="1000"/>
<line x1="600" y1="0" x2="600" y2="1000"/>
<line x1="800" y1="0" x2="800" y2="1000"/>
<line x1="1000" y1="0" x2="1000" y2="1000"/>
<line x1="1200" y1="0" x2="1200" y2="1000"/>
<line x1="1400" y1="0" x2="1400" y2="1000"/>
<line x1="1600" y1="0" x2="1600" y2="1000"/>
<line x1="1800" y1="0" x2="1800" y2="1000"/>
<line x1="0" y1="0" x2="1920" y2="0"/>
<line x1="0" y1="200" x2="1920" y2="200"/>
<line x1="0" y1="400" x2="1920" y2="400"/>
<line x1="0" y1="600" x2="1920" y2="600"/>
<line x1="0" y1="800" x2="1920" y2="800"/>
<line x1="0" y1="1000" x2="1920" y2="1000"/>
</g>
<g stroke="#5eead4" fill="none" opacity="0.16"><circle cx="1800" cy="920" r="420" stroke-width="1.5"/><circle cx="1800" cy="920" r="252.0" stroke-width="1"/><circle cx="1800" cy="920" r="336.0" stroke-width="1"/><line x1="2220.0" y1="920.0" x2="2206.0" y2="920.0" stroke-width="1.5"/><line x1="2216.4" y1="974.8" x2="2202.5" y2="973.0" stroke-width="1.5"/><line x1="2205.7" y1="1028.7" x2="2192.2" y2="1025.1" stroke-width="1.5"/><line x1="2188.0" y1="1080.7" x2="2175.1" y2="1075.4" stroke-width="1.5"/><line x1="2163.7" y1="1130.0" x2="2151.6" y2="1123.0" stroke-width="1.5"/><line x1="2133.2" y1="1175.7" x2="2122.1" y2="1167.2" stroke-width="1.5"/><line x1="2097.0" y1="1217.0" x2="2087.1" y2="1207.1" stroke-width="1.5"/><line x1="2055.7" y1="1253.2" x2="2047.2" y2="1242.1" stroke-width="1.5"/><line x1="2010.0" y1="1283.7" x2="2003.0" y2="1271.6" stroke-width="1.5"/><line x1="1960.7" y1="1308.0" x2="1955.4" y2="1295.1" stroke-width="1.5"/><line x1="1908.7" y1="1325.7" x2="1905.1" y2="1312.2" stroke-width="1.5"/><line x1="1854.8" y1="1336.4" x2="1853.0" y2="1322.5" stroke-width="1.5"/><line x1="1800.0" y1="1340.0" x2="1800.0" y2="1326.0" stroke-width="1.5"/><line x1="1745.2" y1="1336.4" x2="1747.0" y2="1322.5" stroke-width="1.5"/><line x1="1691.3" y1="1325.7" x2="1694.9" y2="1312.2" stroke-width="1.5"/><line x1="1639.3" y1="1308.0" x2="1644.6" y2="1295.1" stroke-width="1.5"/><line x1="1590.0" y1="1283.7" x2="1597.0" y2="1271.6" stroke-width="1.5"/><line x1="1544.3" y1="1253.2" x2="1552.8" y2="1242.1" stroke-width="1.5"/><line x1="1503.0" y1="1217.0" x2="1512.9" y2="1207.1" stroke-width="1.5"/><line x1="1466.8" y1="1175.7" x2="1477.9" y2="1167.2" stroke-width="1.5"/><line x1="1436.3" y1="1130.0" x2="1448.4" y2="1123.0" stroke-width="1.5"/><line x1="1412.0" y1="1080.7" x2="1424.9" y2="1075.4" stroke-width="1.5"/><line x1="1394.3" y1="1028.7" x2="1407.8" y2="1025.1" stroke-width="1.5"/><line x1="1383.6" y1="974.8" x2="1397.5" y2="973.0" stroke-width="1.5"/><line x1="1380.0" y1="920.0" x2="1394.0" y2="920.0" stroke-width="1.5"/><line x1="1383.6" y1="865.2" x2="1397.5" y2="867.0" stroke-width="1.5"/><line x1="1394.3" y1="811.3" x2="1407.8" y2="814.9" stroke-width="1.5"/><line x1="1412.0" y1="759.3" x2="1424.9" y2="764.6" stroke-width="1.5"/><line x1="1436.3" y1="710.0" x2="1448.4" y2="717.0" stroke-width="1.5"/><line x1="1466.8" y1="664.3" x2="1477.9" y2="672.8" stroke-width="1.5"/><line x1="1503.0" y1="623.0" x2="1512.9" y2="632.9" stroke-width="1.5"/><line x1="1544.3" y1="586.8" x2="1552.8" y2="597.9" stroke-width="1.5"/><line x1="1590.0" y1="556.3" x2="1597.0" y2="568.4" stroke-width="1.5"/><line x1="1639.3" y1="532.0" x2="1644.6" y2="544.9" stroke-width="1.5"/><line x1="1691.3" y1="514.3" x2="1694.9" y2="527.8" stroke-width="1.5"/><line x1="1745.2" y1="503.6" x2="1747.0" y2="517.5" stroke-width="1.5"/><line x1="1800.0" y1="500.0" x2="1800.0" y2="514.0" stroke-width="1.5"/><line x1="1854.8" y1="503.6" x2="1853.0" y2="517.5" stroke-width="1.5"/><line x1="1908.7" y1="514.3" x2="1905.1" y2="527.8" stroke-width="1.5"/><line x1="1960.7" y1="532.0" x2="1955.4" y2="544.9" stroke-width="1.5"/><line x1="2010.0" y1="556.3" x2="2003.0" y2="568.4" stroke-width="1.5"/><line x1="2055.7" y1="586.8" x2="2047.2" y2="597.9" stroke-width="1.5"/><line x1="2097.0" y1="623.0" x2="2087.1" y2="632.9" stroke-width="1.5"/><line x1="2133.2" y1="664.3" x2="2122.1" y2="672.8" stroke-width="1.5"/><line x1="2163.7" y1="710.0" x2="2151.6" y2="717.0" stroke-width="1.5"/><line x1="2188.0" y1="759.3" x2="2175.1" y2="764.6" stroke-width="1.5"/><line x1="2205.7" y1="811.3" x2="2192.2" y2="814.9" stroke-width="1.5"/><line x1="2216.4" y1="865.2" x2="2202.5" y2="867.0" stroke-width="1.5"/><line x1="1800" y1="920" x2="2040.8" y2="751.4" stroke-width="2"/><circle cx="1800" cy="920" r="4" fill="#5eead4" stroke="none"/></g>
<g stroke="#5eead4" fill="none" opacity="0.14"><circle cx="60" cy="40" r="220" stroke-width="1.5"/><circle cx="60" cy="40" r="132.0" stroke-width="1"/><circle cx="60" cy="40" r="176.0" stroke-width="1"/><line x1="280.0" y1="40.0" x2="270.0" y2="40.0" stroke-width="1.5"/><line x1="276.7" y1="78.2" x2="266.8" y2="76.5" stroke-width="1.5"/><line x1="266.7" y1="115.2" x2="257.3" y2="111.8" stroke-width="1.5"/><line x1="250.5" y1="150.0" x2="241.9" y2="145.0" stroke-width="1.5"/><line x1="228.5" y1="181.4" x2="220.9" y2="175.0" stroke-width="1.5"/><line x1="201.4" y1="208.5" x2="195.0" y2="200.9" stroke-width="1.5"/><line x1="170.0" y1="230.5" x2="165.0" y2="221.9" stroke-width="1.5"/><line x1="135.2" y1="246.7" x2="131.8" y2="237.3" stroke-width="1.5"/><line x1="98.2" y1="256.7" x2="96.5" y2="246.8" stroke-width="1.5"/><line x1="60.0" y1="260.0" x2="60.0" y2="250.0" stroke-width="1.5"/><line x1="21.8" y1="256.7" x2="23.5" y2="246.8" stroke-width="1.5"/><line x1="-15.2" y1="246.7" x2="-11.8" y2="237.3" stroke-width="1.5"/><line x1="-50.0" y1="230.5" x2="-45.0" y2="221.9" stroke-width="1.5"/><line x1="-81.4" y1="208.5" x2="-75.0" y2="200.9" stroke-width="1.5"/><line x1="-108.5" y1="181.4" x2="-100.9" y2="175.0" stroke-width="1.5"/><line x1="-130.5" y1="150.0" x2="-121.9" y2="145.0" stroke-width="1.5"/><line x1="-146.7" y1="115.2" x2="-137.3" y2="111.8" stroke-width="1.5"/><line x1="-156.7" y1="78.2" x2="-146.8" y2="76.5" stroke-width="1.5"/><line x1="-160.0" y1="40.0" x2="-150.0" y2="40.0" stroke-width="1.5"/><line x1="-156.7" y1="1.8" x2="-146.8" y2="3.5" stroke-width="1.5"/><line x1="-146.7" y1="-35.2" x2="-137.3" y2="-31.8" stroke-width="1.5"/><line x1="-130.5" y1="-70.0" x2="-121.9" y2="-65.0" stroke-width="1.5"/><line x1="-108.5" y1="-101.4" x2="-100.9" y2="-95.0" stroke-width="1.5"/><line x1="-81.4" y1="-128.5" x2="-75.0" y2="-120.9" stroke-width="1.5"/><line x1="-50.0" y1="-150.5" x2="-45.0" y2="-141.9" stroke-width="1.5"/><line x1="-15.2" y1="-166.7" x2="-11.8" y2="-157.3" stroke-width="1.5"/><line x1="21.8" y1="-176.7" x2="23.5" y2="-166.8" stroke-width="1.5"/><line x1="60.0" y1="-180.0" x2="60.0" y2="-170.0" stroke-width="1.5"/><line x1="98.2" y1="-176.7" x2="96.5" y2="-166.8" stroke-width="1.5"/><line x1="135.2" y1="-166.7" x2="131.8" y2="-157.3" stroke-width="1.5"/><line x1="170.0" y1="-150.5" x2="165.0" y2="-141.9" stroke-width="1.5"/><line x1="201.4" y1="-128.5" x2="195.0" y2="-120.9" stroke-width="1.5"/><line x1="228.5" y1="-101.4" x2="220.9" y2="-95.0" stroke-width="1.5"/><line x1="250.5" y1="-70.0" x2="241.9" y2="-65.0" stroke-width="1.5"/><line x1="266.7" y1="-35.2" x2="257.3" y2="-31.8" stroke-width="1.5"/><line x1="276.7" y1="1.8" x2="266.8" y2="3.5" stroke-width="1.5"/><line x1="60" y1="40" x2="186.1" y2="-48.3" stroke-width="2"/><circle cx="60" cy="40" r="4" fill="#5eead4" stroke="none"/></g>
<g stroke="#5eead4" fill="none" opacity="0.2"><circle cx="1382.3999999999999" cy="220.0" r="90" stroke-width="1.5"/><circle cx="1382.3999999999999" cy="220.0" r="58.5" stroke-width="1"/><line x1="1472.4" y1="220.0" x2="1466.4" y2="220.0" stroke-width="1.5"/><line x1="1469.3" y1="243.3" x2="1463.5" y2="241.7" stroke-width="1.5"/><line x1="1460.3" y1="265.0" x2="1455.1" y2="262.0" stroke-width="1.5"/><line x1="1446.0" y1="283.6" x2="1441.8" y2="279.4" stroke-width="1.5"/><line x1="1427.4" y1="297.9" x2="1424.4" y2="292.7" stroke-width="1.5"/><line x1="1405.7" y1="306.9" x2="1404.1" y2="301.1" stroke-width="1.5"/><line x1="1382.4" y1="310.0" x2="1382.4" y2="304.0" stroke-width="1.5"/><line x1="1359.1" y1="306.9" x2="1360.7" y2="301.1" stroke-width="1.5"/><line x1="1337.4" y1="297.9" x2="1340.4" y2="292.7" stroke-width="1.5"/><line x1="1318.8" y1="283.6" x2="1323.0" y2="279.4" stroke-width="1.5"/><line x1="1304.5" y1="265.0" x2="1309.7" y2="262.0" stroke-width="1.5"/><line x1="1295.5" y1="243.3" x2="1301.3" y2="241.7" stroke-width="1.5"/><line x1="1292.4" y1="220.0" x2="1298.4" y2="220.0" stroke-width="1.5"/><line x1="1295.5" y1="196.7" x2="1301.3" y2="198.3" stroke-width="1.5"/><line x1="1304.5" y1="175.0" x2="1309.7" y2="178.0" stroke-width="1.5"/><line x1="1318.8" y1="156.4" x2="1323.0" y2="160.6" stroke-width="1.5"/><line x1="1337.4" y1="142.1" x2="1340.4" y2="147.3" stroke-width="1.5"/><line x1="1359.1" y1="133.1" x2="1360.7" y2="138.9" stroke-width="1.5"/><line x1="1382.4" y1="130.0" x2="1382.4" y2="136.0" stroke-width="1.5"/><line x1="1405.7" y1="133.1" x2="1404.1" y2="138.9" stroke-width="1.5"/><line x1="1427.4" y1="142.1" x2="1424.4" y2="147.3" stroke-width="1.5"/><line x1="1446.0" y1="156.4" x2="1441.8" y2="160.6" stroke-width="1.5"/><line x1="1460.3" y1="175.0" x2="1455.1" y2="178.0" stroke-width="1.5"/><line x1="1469.3" y1="196.7" x2="1463.5" y2="198.3" stroke-width="1.5"/><line x1="1382.3999999999999" y1="220.0" x2="1434.0" y2="183.9" stroke-width="2"/><circle cx="1382.3999999999999" cy="220.0" r="4" fill="#5eead4" stroke="none"/></g>
<g stroke="#14b8a6" stroke-width="1.5" opacity="0.16"><line x1="140" y1="140" x2="640" y2="140"/><line x1="140" y1="132.0" x2="140" y2="148.0"/><line x1="640" y1="132.0" x2="640" y2="148.0"/><line x1="190.0" y1="136.0" x2="190.0" y2="144.0"/><line x1="240.0" y1="136.0" x2="240.0" y2="144.0"/><line x1="290.0" y1="136.0" x2="290.0" y2="144.0"/><line x1="340.0" y1="136.0" x2="340.0" y2="144.0"/><line x1="390.0" y1="136.0" x2="390.0" y2="144.0"/><line x1="440.0" y1="136.0" x2="440.0" y2="144.0"/><line x1="490.0" y1="136.0" x2="490.0" y2="144.0"/><line x1="540.0" y1="136.0" x2="540.0" y2="144.0"/><line x1="590.0" y1="136.0" x2="590.0" y2="144.0"/></g>
<g stroke="#14b8a6" stroke-width="1.5" opacity="0.14"><line x1="1160" y1="860" x2="1740" y2="860"/><line x1="1160" y1="852.0" x2="1160" y2="868.0"/><line x1="1740" y1="852.0" x2="1740" y2="868.0"/><line x1="1218.0" y1="856.0" x2="1218.0" y2="864.0"/><line x1="1276.0" y1="856.0" x2="1276.0" y2="864.0"/><line x1="1334.0" y1="856.0" x2="1334.0" y2="864.0"/><line x1="1392.0" y1="856.0" x2="1392.0" y2="864.0"/><line x1="1450.0" y1="856.0" x2="1450.0" y2="864.0"/><line x1="1508.0" y1="856.0" x2="1508.0" y2="864.0"/><line x1="1566.0" y1="856.0" x2="1566.0" y2="864.0"/><line x1="1624.0" y1="856.0" x2="1624.0" y2="864.0"/><line x1="1682.0" y1="856.0" x2="1682.0" y2="864.0"/></g>
</svg>